PathFileType	4	(X/Y/Z)	C:\Users\dbl\Desktop\LZH\BX\bx_y_5_901.trc
DataRate	CameraRate	NumFrames	NumMarkers	Units	OrigDataRate	OrigDataStartFrame	OrigNumFrames
50.00	50.00	      7	43	mm	50.00	977	      1562
Frame#	Time	Top.Head			R.Acromium			L.Acromium			Sternum			R.ASIS			L.ASIS			V.Sacral			R.Thigh.Upper			R.Thigh.Front			R.Thigh.Rear			R.Knee.Lat			R.Knee.Med			R.Shank.Upper			R.Shank.Front			R.Shank.Rear			R.Ankle.Lat			R.Midfoot.Lat			R.Toe.Lat			R.Toe.Tip			R.Toe.Med			R.Ankle.Med			R.Midfoot.Sup			R.Heel			L.Thigh.Upper			L.Thigh.Front			L.Thigh.Rear			L.Knee.Lat			L.Knee.Med			L.Shank.Upper			L.Shank.Front			L.Shank.Rear			L.Ankle.Lat			L.Midfoot.Lat			L.Toe.Lat			L.Toe.Tip			L.Toe.Med			L.Ankle.Med			L.Midfoot.Sup			L.Heel			origin1 front left			origin2 front right			origin 3 back right			origin 4 back leftt			
		X1	Y1	Z1	X2	Y2	Z2	X3	Y3	Z3	X4	Y4	Z4	X5	Y5	Z5	X6	Y6	Z6	X7	Y7	Z7	X8	Y8	Z8	X9	Y9	Z9	X10	Y10	Z10	X11	Y11	Z11	X12	Y12	Z12	X13	Y13	Z13	X14	Y14	Z14	X15	Y15	Z15	X16	Y16	Z16	X17	Y17	Z17	X18	Y18	Z18	X19	Y19	Z19	X20	Y20	Z20	X21	Y21	Z21	X22	Y22	Z22	X23	Y23	Z23	X24	Y24	Z24	X25	Y25	Z25	X26	Y26	Z26	X27	Y27	Z27	X28	Y28	Z28	X29	Y29	Z29	X30	Y30	Z30	X31	Y31	Z31	X32	Y32	Z32	X33	Y33	Z33	X34	Y34	Z34	X35	Y35	Z35	X36	Y36	Z36	X37	Y37	Z37	X38	Y38	Z38	X39	Y39	Z39	X40	Y40	Z40	X41	Y41	Z41	X42	Y42	Z42	X43	Y43	Z43	

977	19.520	-675.57166	260.69165	1835.74829	-620.64832	69.87354	1537.79639	-599.80719	461.71539	1535.37415	-509.00427	271.99118	1405.88757	-526.87915	143.55844	1053.10693	-527.15833	398.89600	1067.95496	-735.15985	254.90082	1022.99792	-560.61914	95.75533	890.98981	-518.41455	157.03613	841.36816	-616.51959	89.84673	748.57440	-640.42035	124.86053	607.99890	-632.51947	233.87910	562.81775	-682.44196	123.64729	542.86804	-599.63251	175.68539	545.44019	-722.40247	127.13512	476.54642	-686.56824	146.40791	214.42171	-614.41125	80.59910	166.22990	-568.85004	55.82665	163.08229	-490.95844	98.19615	163.07195	-530.29144	148.57361	166.11919	-633.60803	218.49509	218.86955	-591.35724	190.83786	170.40573	-716.39526	214.82188	169.44331	-559.55316	435.76538	879.18011	-515.76648	374.32144	834.25372	-613.81433	442.31412	752.18842	-648.70013	414.96103	628.05103	-619.52161	308.00247	576.92200	-659.46478	410.62546	564.12396	-608.29462	368.57111	540.75745	-712.42822	418.32321	513.48773	-678.96625	415.66803	212.75471	-583.24695	468.50650	165.71307	-543.66394	477.10724	160.40942	-479.55673	427.99393	166.17030	-524.03424	386.53622	177.17171	-644.05518	328.01221	207.20230	-595.41180	349.03986	167.38876	-733.41388	345.86148	164.56068	-443.52878	449.10757	147.03949	-450.56442	75.31340	144.64107	-805.68695	82.19955	142.81699	-799.81934	457.73758	145.28944	
978	19.540	-675.74933	260.61792	1835.73767	-620.72266	69.71324	1537.85925	-600.14264	461.68182	1535.33533	-509.15686	272.02991	1405.90576	-526.95135	143.51321	1053.10583	-527.28748	398.91327	1068.01013	-735.28809	254.81248	1022.97668	-560.64166	95.73257	890.99823	-518.56110	157.10802	841.27631	-616.52417	89.82941	748.53296	-640.41693	124.84233	607.98376	-632.47577	233.79398	562.88019	-682.39392	123.62273	542.80634	-599.62842	175.67595	545.43469	-722.47382	127.12101	476.53415	-686.47552	146.42778	214.44176	-614.43085	80.59415	166.21664	-568.85364	55.85915	163.07899	-490.95050	98.18465	163.09821	-530.29297	148.59200	166.10590	-633.59930	218.55212	218.85167	-591.36938	190.83698	170.37192	-716.38220	214.83426	169.45059	-559.70227	435.72882	879.17462	-515.85815	374.31821	834.27722	-613.87561	442.26321	752.12512	-648.77167	414.91507	628.00281	-619.52252	307.99048	576.89600	-659.53271	410.58194	564.07727	-608.33154	368.56583	540.71948	-712.43402	418.32083	513.48389	-678.95776	415.67029	212.75211	-583.24670	468.51242	165.72791	-543.65332	477.10107	160.41139	-479.55048	428.00272	166.19095	-524.02979	386.52591	177.18025	-644.04010	327.99539	207.17714	-595.41937	349.03845	167.39131	-733.41669	345.86627	164.58788	-443.51569	449.10947	147.03876	-450.56198	75.30528	144.63495	-805.71283	82.20304	142.78935	-799.81812	457.74762	145.29735	
979	19.560	-675.98804	260.55142	1835.71838	-620.78064	69.52193	1537.91125	-600.45996	461.65247	1535.29688	-509.30396	272.05099	1405.92285	-527.01642	143.46851	1053.08875	-527.37994	398.92410	1068.06384	-735.39722	254.71828	1022.94891	-560.66003	95.70871	891.00677	-518.65698	157.16602	841.18054	-616.51257	89.80490	748.50220	-640.39880	124.81226	607.98993	-632.42365	233.70076	562.94598	-682.33795	123.58898	542.73859	-599.62323	175.66638	545.42938	-722.55469	127.10496	476.52023	-686.41766	146.43745	214.45346	-614.44287	80.59975	166.20256	-568.85651	55.88921	163.07823	-490.94244	98.17336	163.12663	-530.29315	148.61160	166.10278	-633.57782	218.60945	218.84610	-591.38611	190.83253	170.32375	-716.36877	214.84453	169.45543	-559.82813	435.68231	879.17554	-515.97021	374.31796	834.32227	-613.91998	442.20120	752.05823	-648.82001	414.87546	627.95764	-619.52319	307.97733	576.87610	-659.58405	410.53714	564.03986	-608.36029	368.55255	540.67957	-712.42749	418.31528	513.47821	-678.94312	415.67377	212.75215	-583.24713	468.51688	165.74081	-543.64227	477.09402	160.41496	-479.54388	428.00851	166.21432	-524.01782	386.50836	177.19029	-644.00604	327.96841	207.15852	-595.42157	349.03314	167.39484	-733.41785	345.87122	164.60873	-443.50165	449.11264	147.03915	-450.55997	75.29765	144.62950	-805.74390	82.20833	142.75786	-799.81531	457.75577	145.30862	
980	19.580	-676.28528	260.48923	1835.69031	-620.81616	69.30283	1537.95715	-600.75702	461.62338	1535.26074	-509.44016	272.05560	1405.93848	-527.07385	143.42508	1053.05701	-527.44550	398.92392	1068.10938	-735.48853	254.61458	1022.91736	-560.67474	95.68418	891.01404	-518.69482	157.20601	841.08600	-616.49030	89.77399	748.48334	-640.36963	124.77131	608.01276	-632.37457	233.60699	563.00397	-682.27930	123.54662	542.66882	-599.61841	175.65721	545.42511	-722.63898	127.08537	476.50546	-686.39880	146.43497	214.45624	-614.44598	80.61613	166.18901	-568.85815	55.91326	163.08109	-490.93546	98.16433	163.15334	-530.28979	148.63020	166.10942	-633.54694	218.66100	218.85384	-591.40771	190.82410	170.26254	-716.35767	214.85144	169.45659	-559.93970	435.63312	879.18420	-516.11200	374.31601	834.38135	-613.96051	442.13519	751.99396	-648.85321	414.84039	627.91718	-619.52417	307.96143	576.86298	-659.62299	410.49313	564.01074	-608.38629	368.53186	540.63861	-712.41687	418.30521	513.46942	-678.92346	415.67896	212.75500	-583.24701	468.51935	165.75114	-543.63293	477.08740	160.42201	-479.53751	428.00949	166.23839	-523.99878	386.48654	177.20271	-643.96088	327.93683	207.14384	-595.41919	349.02457	167.39865	-733.41681	345.87616	164.62262	-443.48734	449.11731	147.04140	-450.55878	75.29139	144.62534	-805.77344	82.21515	142.72643	-799.81189	457.76074	145.32141	
981	19.600	-676.63690	260.42828	1835.65295	-620.82751	69.06344	1538.00208	-601.03278	461.59210	1535.22864	-509.56186	272.04758	1405.95325	-527.12213	143.38254	1053.01392	-527.49628	398.90970	1068.14185	-735.56500	254.50072	1022.88556	-560.68701	95.65993	891.01868	-518.67603	157.22676	840.99847	-616.46436	89.73894	748.47406	-640.33423	124.72287	608.04523	-632.33807	233.51915	563.04620	-682.22510	123.49730	542.60150	-599.61578	175.64886	545.42212	-722.71893	127.06188	476.49109	-686.41821	146.42035	214.45076	-614.44019	80.64136	166.17711	-568.85828	55.92878	163.08807	-490.93033	98.15956	163.17412	-530.28040	148.64545	166.12411	-633.51086	218.70201	218.87421	-591.43256	190.81239	170.19312	-716.35114	214.85431	169.45422	-560.04468	435.58618	879.20087	-516.29004	374.30414	834.44415	-614.00812	442.07043	751.93628	-648.87976	414.80743	627.88336	-619.52557	307.94174	576.85632	-659.65454	410.45151	563.98871	-608.41437	368.50397	540.59711	-712.40936	418.28973	513.45703	-678.90143	415.68600	212.76076	-583.24500	468.51947	165.75894	-543.62726	477.08221	160.43332	-479.53192	428.00504	166.26007	-523.97461	386.46442	177.21770	-643.91431	327.90720	207.13008	-595.41394	349.01358	167.40224	-733.41382	345.88098	164.63043	-443.47348	449.12332	147.04570	-450.55850	75.28699	144.62306	-805.79553	82.22288	142.69914	-799.80890	457.76175	145.33348	
982	19.620	-677.03717	260.36642	1835.60461	-620.81659	68.81488	1538.04993	-601.28687	461.55804	1535.20093	-509.66751	272.03207	1405.96765	-527.16010	143.34023	1052.96375	-527.54468	398.88010	1068.15869	-735.63068	254.37901	1022.85754	-560.69904	95.63711	891.01953	-518.61084	157.23007	840.92340	-616.44232	89.70351	748.46918	-640.29785	124.67227	608.07953	-632.32056	233.44220	563.06946	-682.18268	123.44345	542.54138	-599.61774	175.64139	545.41968	-722.78717	127.03523	476.47870	-686.47058	146.39581	214.43837	-614.42731	80.67188	166.16754	-568.85693	55.93481	163.09897	-490.92728	98.16054	163.18561	-530.26294	148.65515	166.14445	-633.47382	218.73010	218.90504	-591.45734	190.79964	170.12361	-716.35052	214.85323	169.44983	-560.14807	435.54327	879.22449	-516.50616	374.27338	834.50031	-614.06952	442.00870	751.88580	-648.90790	414.77411	627.85809	-619.52765	307.91794	576.85480	-659.68323	410.41357	563.97302	-608.44794	368.46896	540.55573	-712.41016	418.26837	513.44165	-678.88043	415.69443	212.76927	-583.24023	468.51715	165.76479	-543.62634	477.07880	160.44824	-479.52768	427.99567	166.27576	-523.94855	386.44626	177.23473	-643.87537	327.88513	207.11520	-595.40778	349.00095	167.40526	-733.40955	345.88556	164.63405	-443.46085	449.13025	147.05170	-450.55914	75.28454	144.62312	-805.80664	82.23085	142.67926	-799.80701	457.75861	145.34258	
983	19.640	-677.47864	260.30276	1835.54297	-620.78882	68.57010	1538.10242	-601.51917	461.52219	1535.17725	-509.75763	272.01346	1405.98157	-527.18756	143.29808	1052.91125	-527.60162	398.83533	1068.16028	-735.69006	254.25429	1022.83685	-560.71350	95.61654	891.01575	-518.51764	157.22043	840.86517	-616.43036	89.67290	748.46130	-640.26563	124.62600	608.10773	-632.32458	233.37946	563.07501	-682.15839	123.38776	542.49249	-599.62659	175.63446	545.41632	-722.83826	127.00703	476.46976	-686.54675	146.36539	214.42084	-614.41003	80.70337	166.16045	-568.85400	55.93196	163.11288	-490.92587	98.16764	163.18616	-530.23615	148.65782	166.16789	-633.43896	218.74553	218.94296	-591.47705	190.78909	170.06409	-716.35590	214.84918	169.44579	-560.25183	435.50327	879.25323	-516.75574	374.21701	834.54169	-614.14557	441.94708	751.83984	-648.94397	414.73865	627.84277	-619.53137	307.89044	576.85620	-659.71259	410.38007	563.96344	-608.48853	368.42734	540.51550	-712.42224	418.24142	513.42480	-678.86371	415.70340	212.78012	-583.23248	468.51257	165.76944	-543.63013	477.07672	160.46480	-479.52539	427.98303	166.28214	-523.92474	386.43591	177.25247	-643.85040	327.87375	207.09927	-595.40234	348.98709	167.40756	-733.40503	345.88962	164.63568	-443.45029	449.13736	147.05856	-450.56058	75.28396	144.62581	-805.80603	82.23854	142.66841	-799.80688	457.75150	145.34694	
